<svg width="70" height="57" viewBox="0 0 70 57" fill="none" xmlns="http://www.w3.org/2000/svg">
<path d="M0 10.6875V14.25H41.5625V40.9688H28.0963C27.1206 37.9068 23.7388 35.625 19.6875 35.625C15.6362 35.625 12.2544 37.9068 11.2788 40.9688H8.75V32.0625H4.375V44.5312H11.2788C12.2544 47.5932 15.6362 49.875 19.6875 49.875C23.7388 49.875 27.1206 47.5932 28.0963 44.5312H46.2788C47.2544 47.5932 50.6362 49.875 54.6875 49.875C58.7388 49.875 62.1206 47.5932 63.0962 44.5312H70V30.0034L69.8622 29.7237L65.4872 19.0362L65.0125 17.8125H45.9375V10.6875H0ZM2.1875 17.8125V21.375H21.875V17.8125H2.1875ZM45.9375 21.375H61.8647L65.625 30.5039V40.9688H63.0962C62.1206 37.9068 58.7388 35.625 54.6875 35.625C50.6362 35.625 47.2544 37.9068 46.2788 40.9688H45.9375V21.375ZM4.375 24.9375V28.5H17.5V24.9375H4.375ZM19.6875 39.1875C22.1309 39.1875 24.0625 40.7603 24.0625 42.75C24.0625 44.7397 22.1309 46.3125 19.6875 46.3125C17.2441 46.3125 15.3125 44.7397 15.3125 42.75C15.3125 40.7603 17.2441 39.1875 19.6875 39.1875ZM54.6875 39.1875C57.1309 39.1875 59.0625 40.7603 59.0625 42.75C59.0625 44.7397 57.1309 46.3125 54.6875 46.3125C52.2441 46.3125 50.3125 44.7397 50.3125 42.75C50.3125 40.7603 52.2441 39.1875 54.6875 39.1875Z" fill="white"/>
</svg>
