<svg width="35" height="35" viewBox="0 0 35 35" fill="none" xmlns="http://www.w3.org/2000/svg">
<g clip-path="url(#clip0)">
<path d="M17.6475 -0.0375977C8.0595 -0.0375977 0.25769 7.76204 0.25769 17.3511C0.25769 26.9401 8.0595 34.7398 17.6475 34.7398C27.2354 34.7398 35.0372 26.9401 35.0372 17.3511C35.0372 7.76204 27.2354 -0.0375977 17.6475 -0.0375977ZM17.6475 33.5815C8.69826 33.5815 1.41809 26.3003 1.41809 17.3511C1.41809 8.40189 8.69826 1.12064 17.6475 1.12064C26.5967 1.12064 33.8768 8.40189 33.8768 17.3511C33.8768 26.3003 26.5967 33.5815 17.6475 33.5815Z" fill="white"/>
<path d="M21.444 7.59217H18.5505C14.8655 7.5553 14.3948 9.83598 14.3948 12.3043V14.0991H12.7681C12.6945 14.0893 12.6197 14.0965 12.5495 14.1203C12.4792 14.1441 12.4154 14.1838 12.3629 14.2362C12.3105 14.2887 12.2708 14.3525 12.247 14.4228C12.2232 14.493 12.216 14.5678 12.2258 14.6413V17.8948C12.216 17.9683 12.2232 18.0431 12.247 18.1134C12.2708 18.1837 12.3105 18.2475 12.3629 18.3C12.4154 18.3524 12.4792 18.3921 12.5495 18.4158C12.6197 18.4396 12.6945 18.4469 12.7681 18.4371H14.3948V26.5707C14.3857 26.6444 14.3937 26.7191 14.4179 26.7893C14.4422 26.8594 14.4822 26.923 14.5348 26.9754C14.5874 27.0277 14.6513 27.0673 14.7216 27.0911C14.7919 27.115 14.8667 27.1224 14.9403 27.113H18.2534C18.5733 27.1498 18.8325 26.8906 18.7306 26.5707L18.7327 18.4371H21.444C21.5175 18.4469 21.5923 18.4396 21.6625 18.4158C21.7328 18.3921 21.7966 18.3524 21.8491 18.3C21.9016 18.2475 21.9412 18.1837 21.965 18.1134C21.9888 18.0431 21.996 17.9683 21.9862 17.8948V14.6413C21.996 14.5678 21.9888 14.493 21.965 14.4228C21.9412 14.3525 21.9016 14.2887 21.8491 14.2362C21.7966 14.1838 21.7328 14.1441 21.6625 14.1203C21.5923 14.0965 21.5175 14.0893 21.444 14.0991H18.7295L18.7327 12.4724C18.8379 11.7794 18.8379 11.8922 19.481 11.9301H21.4212C21.5719 11.8965 21.7324 11.9149 21.8452 11.8054C21.958 11.6959 22.0231 11.5462 21.9851 11.3879V8.13441C21.9951 8.06095 21.988 7.98616 21.9644 7.91589C21.9408 7.84561 21.9012 7.78174 21.8488 7.72926C21.7965 7.67678 21.7327 7.63711 21.6624 7.61333C21.5922 7.58955 21.5174 7.58231 21.444 7.59217ZM20.8638 10.7849L19.5038 10.7328C17.8196 10.7328 17.6786 11.6471 17.6786 12.583L17.6743 14.6392C17.6741 14.7153 17.689 14.7907 17.718 14.8611C17.7471 14.9315 17.7897 14.9955 17.8435 15.0494C17.8973 15.1033 17.9612 15.146 18.0315 15.1752C18.1019 15.2044 18.1773 15.2194 18.2534 15.2194H20.9017V17.3146H18.2556C18.1019 17.3146 17.9545 17.3756 17.8457 17.4842C17.7369 17.5927 17.6756 17.74 17.6754 17.8937L17.6743 26.0285H15.4793V17.8948C15.4793 17.5749 15.2613 17.3157 14.9403 17.3157H13.3103V15.2205H14.9403C15.0164 15.2206 15.0917 15.2057 15.1621 15.1767C15.2324 15.1476 15.2964 15.105 15.3502 15.0513C15.4587 14.9417 15.4782 14.7943 15.4782 14.6403V12.3032C15.4782 9.87176 15.9695 8.71353 18.5495 8.71353H20.8627V10.7849H20.8638Z" fill="white"/>
</g>
<defs>
<clipPath id="clip0">
<rect width="34.7036" height="34.7036" fill="white" transform="translate(0.296387)"/>
</clipPath>
</defs>
</svg>
