<svg width="21" height="20" viewBox="0 0 21 20" fill="none" xmlns="http://www.w3.org/2000/svg">
<g clip-path="url(#clip0)">
<path d="M10.6667 -0.0212402C5.14106 -0.0212402 0.644806 4.47376 0.644806 10C0.644806 15.5263 5.14106 20.0213 10.6667 20.0213C16.1923 20.0213 20.6886 15.5263 20.6886 10C20.6886 4.47376 16.1923 -0.0212402 10.6667 -0.0212402ZM10.6667 19.3538C5.50918 19.3538 1.31356 15.1575 1.31356 10C1.31356 4.84251 5.50918 0.64626 10.6667 0.64626C15.8242 0.64626 20.0198 4.84251 20.0198 10C20.0198 15.1575 15.8242 19.3538 10.6667 19.3538Z" fill="#001514"/>
<path d="M12.8542 4.37503H11.1867C9.06291 4.35378 8.79166 5.66815 8.79166 7.09065V8.12503H7.85416C7.81179 8.11936 7.76868 8.12355 7.72819 8.13725C7.68769 8.15096 7.6509 8.17381 7.62068 8.20404C7.59045 8.23427 7.56759 8.27106 7.55389 8.31155C7.54019 8.35204 7.536 8.39515 7.54166 8.43752V10.3125C7.536 10.3549 7.54019 10.398 7.55389 10.4385C7.56759 10.479 7.59045 10.5158 7.62068 10.546C7.6509 10.5762 7.68769 10.5991 7.72819 10.6128C7.76868 10.6265 7.81179 10.6307 7.85416 10.625H8.79166V15.3125C8.78646 15.355 8.79102 15.3981 8.80501 15.4385C8.81899 15.4789 8.84203 15.5156 8.87236 15.5457C8.90269 15.5759 8.93952 15.5987 8.98002 15.6124C9.02052 15.6262 9.06362 15.6305 9.10604 15.625H11.0154C11.1998 15.6463 11.3492 15.4969 11.2904 15.3125L11.2917 10.625H12.8542C12.8965 10.6307 12.9396 10.6265 12.9801 10.6128C13.0206 10.5991 13.0574 10.5762 13.0877 10.546C13.1179 10.5158 13.1407 10.479 13.1544 10.4385C13.1681 10.398 13.1723 10.3549 13.1667 10.3125V8.43752C13.1723 8.39515 13.1681 8.35204 13.1544 8.31155C13.1407 8.27106 13.1179 8.23427 13.0877 8.20404C13.0574 8.17381 13.0206 8.15096 12.9801 8.13725C12.9396 8.12355 12.8965 8.11936 12.8542 8.12503H11.2898L11.2917 7.18753C11.3523 6.78815 11.3523 6.85315 11.7229 6.87503H12.841C12.9279 6.85565 13.0204 6.86628 13.0854 6.80315C13.1504 6.74003 13.1879 6.65377 13.166 6.56253V4.68753C13.1718 4.64519 13.1677 4.60209 13.1541 4.56159C13.1405 4.52109 13.1177 4.48428 13.0875 4.45403C13.0573 4.42379 13.0206 4.40092 12.9801 4.38722C12.9396 4.37351 12.8965 4.36934 12.8542 4.37503ZM12.5198 6.21503L11.736 6.18502C10.7654 6.18502 10.6842 6.7119 10.6842 7.25128L10.6817 8.43628C10.6816 8.48016 10.6902 8.52362 10.7069 8.56419C10.7236 8.60475 10.7482 8.64162 10.7792 8.67268C10.8102 8.70373 10.847 8.72837 10.8875 8.74518C10.9281 8.762 10.9715 8.77065 11.0154 8.77065H12.5417V9.97815H11.0167C10.9281 9.97815 10.8431 10.0133 10.7804 10.0759C10.7178 10.1384 10.6825 10.2233 10.6823 10.3119L10.6817 15H9.41666V10.3125C9.41666 10.1281 9.29104 9.97878 9.10604 9.97878H8.16666V8.77128H9.10604C9.14989 8.77134 9.19333 8.76276 9.23387 8.74604C9.2744 8.72931 9.31125 8.70475 9.34229 8.67378C9.40479 8.61065 9.41604 8.52565 9.41604 8.4369V7.09002C9.41604 5.68877 9.69916 5.02128 11.186 5.02128H12.5192V6.21503H12.5198Z" fill="#001514"/>
</g>
<defs>
<clipPath id="clip0">
<rect width="20" height="20" fill="white" transform="translate(0.666687)"/>
</clipPath>
</defs>
</svg>
