<svg width="38" height="38" viewBox="0 0 38 38" fill="none" xmlns="http://www.w3.org/2000/svg">
<path d="M18.507 11.3774C16.6155 11.3774 14.8014 12.1288 13.4639 13.4664C12.1264 14.8039 11.375 16.6179 11.375 18.5094C11.375 20.4009 12.1264 22.215 13.4639 23.5525C14.8014 24.89 16.6155 25.6414 18.507 25.6414C20.3985 25.6414 22.2125 24.89 23.5501 23.5525C24.8876 22.215 25.639 20.4009 25.639 18.5094C25.639 16.6179 24.8876 14.8039 23.5501 13.4664C22.2125 12.1288 20.3985 11.3774 18.507 11.3774ZM18.507 23.1412C17.2781 23.1412 16.0996 22.653 15.2307 21.7841C14.3618 20.9152 13.8737 19.7367 13.8737 18.5079C13.8737 17.279 14.3618 16.1005 15.2307 15.2316C16.0996 14.3627 17.2781 13.8746 18.507 13.8746C19.7358 13.8746 20.9143 14.3627 21.7832 15.2316C22.6522 16.1005 23.1403 17.279 23.1403 18.5079C23.1403 19.7367 22.6522 20.9152 21.7832 21.7841C20.9143 22.653 19.7358 23.1412 18.507 23.1412Z" fill="white"/>
<path d="M25.9214 12.778C26.8396 12.778 27.584 12.0336 27.584 11.1153C27.584 10.197 26.8396 9.45264 25.9214 9.45264C25.0031 9.45264 24.2587 10.197 24.2587 11.1153C24.2587 12.0336 25.0031 12.778 25.9214 12.778Z" fill="white"/>
<path d="M31.6699 9.42492C31.3128 8.50285 30.7672 7.6655 30.0679 6.96645C29.3686 6.26741 28.531 5.72208 27.6088 5.36537C26.5297 4.96027 25.3896 4.74123 24.2372 4.71757C22.7518 4.65279 22.2814 4.63428 18.5149 4.63428C14.7484 4.63428 14.2656 4.63428 12.7927 4.71757C11.6411 4.74002 10.5019 4.95911 9.4241 5.36537C8.50166 5.72166 7.66388 6.26684 6.96451 6.96594C6.26515 7.66504 5.71965 8.50261 5.363 9.42492C4.95783 10.504 4.73929 11.6442 4.71674 12.7966C4.65042 14.2803 4.63037 14.7508 4.63037 18.5188C4.63037 22.2853 4.63037 22.765 4.71674 24.2411C4.73988 25.3948 4.95736 26.533 5.363 27.6143C5.72065 28.5362 6.26668 29.3735 6.96621 30.0725C7.66575 30.7715 8.50339 31.3169 9.42564 31.6738C10.5014 32.0952 11.6411 32.3299 12.7957 32.3679C14.2811 32.4327 14.7515 32.4527 18.518 32.4527C22.2845 32.4527 22.7673 32.4527 24.2402 32.3679C25.3926 32.3444 26.5326 32.1259 27.6119 31.7216C28.5339 31.3641 29.3712 30.8183 30.0704 30.119C30.7696 29.4198 31.3154 28.5825 31.673 27.6605C32.0786 26.5809 32.2961 25.4426 32.3192 24.2889C32.3856 22.8051 32.4056 22.3347 32.4056 18.5666C32.4056 14.7986 32.4056 14.3204 32.3192 12.8444C32.3013 11.6757 32.0816 10.5189 31.6699 9.42492ZM29.7913 24.1269C29.7813 25.0158 29.6191 25.8964 29.3116 26.7305C29.08 27.3302 28.7254 27.8749 28.2706 28.3294C27.8158 28.7839 27.271 29.1382 26.671 29.3695C25.8462 29.6756 24.975 29.8378 24.0953 29.8492C22.63 29.917 22.2166 29.934 18.4594 29.934C14.6991 29.934 14.315 29.934 12.822 29.8492C11.9427 29.8384 11.0719 29.6761 10.2477 29.3695C9.64572 29.1396 9.09866 28.786 8.64194 28.3314C8.18522 27.8768 7.82902 27.3314 7.59637 26.7305C7.29321 25.9054 7.13106 25.0351 7.11669 24.1562C7.05037 22.691 7.03495 22.2776 7.03495 18.5204C7.03495 14.7616 7.03495 14.3775 7.11669 12.8829C7.12666 11.9946 7.28891 11.1145 7.59637 10.2809C8.0668 9.064 9.03079 8.10618 10.2477 7.64038C11.0723 7.33521 11.9429 7.17298 12.822 7.1607C14.2888 7.09438 14.7006 7.07587 18.4594 7.07587C22.2182 7.07587 22.6038 7.07587 24.0953 7.1607C24.975 7.17129 25.8464 7.33356 26.671 7.64038C27.2709 7.87216 27.8157 8.2268 28.2704 8.68154C28.7252 9.13628 29.0798 9.68107 29.3116 10.2809C29.6148 11.106 29.7769 11.9763 29.7913 12.8552C29.8576 14.322 29.8746 14.7338 29.8746 18.4926C29.8746 22.2498 29.8746 22.6539 29.8082 24.1285H29.7913V24.1269Z" fill="white"/>
</svg>
