<svg width="22" height="22" viewBox="0 0 22 22" fill="none" xmlns="http://www.w3.org/2000/svg">
<path d="M10.6658 6.55731C9.57567 6.55731 8.53021 6.99035 7.7594 7.76117C6.98858 8.53198 6.55554 9.57744 6.55554 10.6675C6.55554 11.7576 6.98858 12.8031 7.7594 13.5739C8.53021 14.3447 9.57567 14.7778 10.6658 14.7778C11.7559 14.7778 12.8013 14.3447 13.5721 13.5739C14.3429 12.8031 14.776 11.7576 14.776 10.6675C14.776 9.57744 14.3429 8.53198 13.5721 7.76117C12.8013 6.99035 11.7559 6.55731 10.6658 6.55731ZM10.6658 13.3369C9.95758 13.3369 9.2784 13.0555 8.77763 12.5548C8.27687 12.054 7.99554 11.3748 7.99554 10.6666C7.99554 9.95846 8.27687 9.27928 8.77763 8.77851C9.2784 8.27775 9.95758 7.99642 10.6658 7.99642C11.374 7.99642 12.0531 8.27775 12.5539 8.77851C13.0547 9.27928 13.336 9.95846 13.336 10.6666C13.336 11.3748 13.0547 12.054 12.5539 12.5548C12.0531 13.0555 11.374 13.3369 10.6658 13.3369Z" fill="#001514"/>
<path d="M14.9386 7.36444C15.4678 7.36444 15.8969 6.93543 15.8969 6.40622C15.8969 5.87701 15.4678 5.448 14.9386 5.448C14.4094 5.448 13.9804 5.87701 13.9804 6.40622C13.9804 6.93543 14.4094 7.36444 14.9386 7.36444Z" fill="#001514"/>
<path d="M18.2516 5.43203C18.0458 4.90064 17.7313 4.41806 17.3283 4.01519C16.9253 3.61233 16.4426 3.29805 15.9111 3.09248C15.2892 2.85902 14.6322 2.73278 13.968 2.71914C13.112 2.68181 12.8409 2.67114 10.6702 2.67114C8.49957 2.67114 8.22135 2.67114 7.37246 2.71914C6.7088 2.73208 6.05224 2.85834 5.43112 3.09248C4.89951 3.29781 4.41669 3.612 4.01364 4.0149C3.61059 4.4178 3.29622 4.9005 3.09068 5.43203C2.85717 6.05391 2.73123 6.711 2.71823 7.37514C2.68001 8.23025 2.66846 8.50136 2.66846 10.6729C2.66846 12.8436 2.66846 13.12 2.71823 13.9707C2.73157 14.6356 2.8569 15.2916 3.09068 15.9147C3.29679 16.446 3.61148 16.9285 4.01462 17.3314C4.41777 17.7342 4.90051 18.0485 5.43201 18.2543C6.05195 18.4971 6.70879 18.6324 7.37423 18.6543C8.23023 18.6916 8.50135 18.7031 10.672 18.7031C12.8427 18.7031 13.1209 18.7031 13.9698 18.6543C14.6339 18.6407 15.2909 18.5148 15.9129 18.2818C16.4442 18.0758 16.9268 17.7612 17.3298 17.3582C17.7327 16.9553 18.0473 16.4727 18.2533 15.9414C18.4871 15.3191 18.6125 14.6631 18.6258 13.9983C18.664 13.1431 18.6756 12.872 18.6756 10.7005C18.6756 8.52892 18.6756 8.25337 18.6258 7.4027C18.6154 6.72916 18.4888 6.06247 18.2516 5.43203ZM17.1689 13.9049C17.1632 14.4172 17.0697 14.9247 16.8925 15.4054C16.759 15.751 16.5546 16.0649 16.2925 16.3269C16.0304 16.5888 15.7164 16.793 15.3707 16.9263C14.8953 17.1027 14.3932 17.1962 13.8862 17.2027C13.0418 17.2418 12.8036 17.2516 10.6382 17.2516C8.47112 17.2516 8.24979 17.2516 7.38935 17.2027C6.88261 17.1965 6.38075 17.103 5.90579 16.9263C5.55885 16.7938 5.24357 16.59 4.98036 16.328C4.71715 16.066 4.51187 15.7517 4.37779 15.4054C4.20308 14.9299 4.10962 14.4283 4.10135 13.9218C4.06312 13.0774 4.05423 12.8391 4.05423 10.6738C4.05423 8.50759 4.05423 8.28625 4.10135 7.42492C4.10709 6.91294 4.2006 6.40574 4.37779 5.92536C4.6489 5.22403 5.20446 4.67203 5.90579 4.40359C6.38098 4.22771 6.8827 4.13422 7.38935 4.12714C8.23468 4.08892 8.47201 4.07825 10.6382 4.07825C12.8045 4.07825 13.0267 4.07825 13.8862 4.12714C14.3933 4.13324 14.8954 4.22676 15.3707 4.40359C15.7164 4.53716 16.0304 4.74154 16.2924 5.00361C16.5545 5.26568 16.7589 5.57965 16.8925 5.92536C17.0672 6.40088 17.1606 6.9024 17.1689 7.40892C17.2071 8.25425 17.2169 8.49159 17.2169 10.6578C17.2169 12.8231 17.2169 13.056 17.1787 13.9058H17.1689V13.9049Z" fill="#001514"/>
</svg>
