<svg width="70" height="57" viewBox="0 0 70 57" fill="none" xmlns="http://www.w3.org/2000/svg">
<path d="M61.2354 16.3875C61.1869 15.9884 61.0149 15.6058 60.7353 15.2756C60.4558 14.9453 60.0779 14.6783 59.6371 14.4994L36.3037 4.99937C35.8985 4.83426 35.4517 4.74829 34.9985 4.74829C34.5454 4.74829 34.0985 4.83426 33.6933 4.99937L10.36 14.4994C9.92038 14.6793 9.54366 14.9467 9.26476 15.2767C8.98587 15.6068 8.81382 15.9889 8.76458 16.3875C8.7325 16.6416 5.96166 41.9591 33.8158 52.0457C34.188 52.1825 34.5917 52.2532 35 52.2532C35.4083 52.2532 35.812 52.1825 36.1842 52.0457C64.0383 41.9591 61.2675 16.644 61.2354 16.3875ZM35 47.2554C15.2571 39.4844 14.3237 22.8997 14.4842 18.1331L35 9.78024L55.5012 18.1284C55.6092 22.8522 54.5446 39.5461 35 47.2554Z" fill="white"/>
<path d="M32.0833 29.8918L25.3954 24.4459L21.2712 27.8042L32.0833 36.6083L48.7287 23.0542L44.6046 19.6959L32.0833 29.8918Z" fill="white"/>
</svg>
