<svg width="22" height="22" viewBox="0 0 22 22" fill="none" xmlns="http://www.w3.org/2000/svg">
<g clip-path="url(#clip0)">
<path d="M20.7778 2.67556C20.7778 2.67556 18.984 3.73512 17.9867 4.03556C17.4513 3.42002 16.7399 2.98374 15.9485 2.78572C15.1571 2.58771 14.324 2.63752 13.5619 2.92841C12.7997 3.21931 12.1453 3.73725 11.6871 4.4122C11.2289 5.08715 10.9891 5.88653 11 6.70223V7.59112C9.4379 7.63163 7.89003 7.28518 6.49424 6.58263C5.09845 5.88008 3.89807 4.84324 3.00001 3.56445C3.00001 3.56445 -0.555549 11.5645 7.44445 15.12C5.61381 16.3626 3.43304 16.9857 1.22223 16.8978C9.22223 21.3422 19 16.8978 19 6.67556C19 6.42845 18.9751 6.18134 18.9289 5.93779C19.8356 5.04356 20.7778 2.67556 20.7778 2.67556Z" stroke="#001514" stroke-width="1.33333" stroke-linecap="round" stroke-linejoin="round"/>
</g>
<defs>
<clipPath id="clip0">
<rect width="21.3333" height="21.3333" fill="white" transform="translate(0.333313)"/>
</clipPath>
</defs>
</svg>
