<svg width="38" height="38" viewBox="0 0 38 38" fill="none" xmlns="http://www.w3.org/2000/svg">
<g clip-path="url(#clip0)">
<path d="M36.123 4.64197C36.123 4.64197 33.0105 6.4805 31.2799 7.00182C30.351 5.93374 29.1165 5.17671 27.7433 4.83312C26.3701 4.48953 24.9245 4.57595 23.602 5.08071C22.2796 5.58547 21.144 6.4842 20.349 7.65535C19.554 8.82651 19.1378 10.2136 19.1568 11.629V13.1714C16.4462 13.2416 13.7604 12.6405 11.3384 11.4214C8.91649 10.2024 6.83362 8.40329 5.27532 6.18436C5.27532 6.18436 -0.894215 20.0658 12.9872 26.2353C9.81074 28.3915 6.0267 29.4727 2.19055 29.3201C16.072 37.032 33.0382 29.3201 33.0382 11.5827C33.0382 11.1539 32.995 10.7251 32.9148 10.3025C34.4881 8.75088 36.123 4.64197 36.123 4.64197Z" stroke="white" stroke-width="2.31358" stroke-linecap="round" stroke-linejoin="round"/>
</g>
<defs>
<clipPath id="clip0">
<rect width="37.0172" height="37.0172" fill="white" transform="translate(0.648193)"/>
</clipPath>
</defs>
</svg>
